<!DOCTYPE svg PUBLIC "-//W3C//DTD SVG 20010904//EN" "http://www.w3.org/TR/2001/REC-SVG-20010904/DTD/svg10.dtd">
<svg version="1.0" xmlns="http://www.w3.org/2000/svg" width="6000px" height="6000px" viewBox="0 0 12000 12000" preserveAspectRatio="xMidYMid meet">
<g id="layer101" fill="#645d5d" stroke="none">
 <path d="M5550 11993 c-77 -2 -324 -22 -363 -28 -12 -2 -69 -11 -127 -20 -668 -103 -1329 -327 -1945 -657 -119 -64 -111 -59 -294 -173 -724 -449 -1430 -1137 -1860 -1815 -30 -47 -73 -114 -96 -150 -96 -149 -294 -535 -414 -807 -140 -320 -338 -1020 -395 -1398 -47 -313 -50 -368 -49 -955 0 -606 5 -680 64 -1040 125 -757 467 -1618 898 -2260 119 -178 324 -450 447 -593 117 -135 417 -442 564 -576 393 -358 811 -644 1305 -896 698 -355 1482 -572 2219 -616 256 -16 1031 -5 1211 16 452 54 787 128 1211 270 473 158 889 356 1309 623 338 216 566 394 889 697 284 265 609 636 795 905 345 499 614 1029 787 1550 126 381 201 707 266 1165 19 129 18 1387 0 1535 -47 376 -137 774 -254 1124 -49 149 -111 322 -128 361 -5 11 -21 47 -35 80 -15 33 -39 87 -53 120 -36 80 -214 436 -253 505 -17 30 -67 114 -112 185 l-80 130 2 255 c2 216 -1 277 -19 399 -60 407 -195 743 -434 1081 -98 140 -345 391 -488 498 -328 245 -676 397 -1053 459 -138 23 -655 26 -800 5 -158 -23 -462 -109 -557 -158 -40 -21 -69 -23 -107 -7 -47 20 -305 79 -476 109 -77 13 -151 26 -165 29 -188 38 -512 55 -975 53 -198 -1 -394 -3 -435 -5z"/>
 </g>
<g id="layer102" fill="#8ec8ca" stroke="none">
 <path d="M5540 11994 c-598 -24 -1376 -217 -2000 -496 -140 -63 -454 -222 -549 -279 -495 -293 -914 -620 -1301 -1015 -281 -287 -547 -617 -729 -904 -30 -47 -73 -114 -96 -150 -96 -149 -294 -535 -414 -807 -140 -320 -338 -1020 -395 -1398 -47 -313 -50 -368 -49 -955 0 -606 5 -680 64 -1040 125 -757 467 -1618 898 -2260 119 -178 324 -450 447 -593 117 -135 417 -442 564 -576 393 -358 811 -644 1305 -896 698 -355 1482 -572 2219 -616 256 -16 1031 -5 1211 16 452 54 787 128 1211 270 473 158 889 356 1309 623 338 216 566 394 889 697 284 265 609 636 795 905 345 499 614 1029 787 1550 126 381 201 707 266 1165 19 129 18 1387 0 1535 -106 844 -384 1633 -840 2386 -59 96 -87 132 -97 123 -2 -3 -18 -70 -35 -149 -99 -473 -303 -865 -624 -1198 -358 -372 -820 -619 -1318 -706 -233 -41 -585 -41 -828 0 -292 49 -637 190 -906 370 -157 104 -251 183 -389 325 -300 309 -504 670 -605 1069 -57 224 -64 290 -64 600 0 309 6 370 65 597 81 319 259 665 471 918 202 242 436 432 736 600 67 38 122 72 122 75 0 36 -656 170 -980 200 -110 11 -963 21 -1140 14z"/>
 <path d="M8350 11191 l0 -121 245 0 c199 0 262 -4 343 -19 505 -98 884 -466 1005 -976 18 -75 21 -121 21 -275 0 -198 -15 -289 -70 -438 -135 -357 -429 -644 -779 -761 -194 -64 -191 -64 -765 -68 l-525 -4 265 265 265 266 -83 82 -82 83 -405 -405 -405 -405 405 -405 405 -405 82 83 83 82 -264 264 -265 265 540 4 c509 3 544 5 635 25 315 71 584 222 793 444 189 200 316 441 378 719 20 91 23 130 23 314 0 229 -10 295 -66 469 -149 456 -516 818 -974 961 -177 56 -261 67 -547 72 l-258 6 0 -122z"/>
 </g>
<g id="layer103" fill="#ffffff" stroke="none">
 <path d="M8350 11197 l0 -114 243 -6 c153 -4 275 -12 332 -22 443 -79 818 -394 969 -815 50 -139 67 -227 73 -386 4 -118 2 -173 -12 -254 -91 -549 -522 -974 -1066 -1054 -85 -13 -203 -16 -585 -16 l-479 0 265 265 265 265 -83 82 -82 83 -405 -405 -405 -405 405 -405 405 -405 82 83 83 82 -264 264 -264 265 539 4 c502 3 545 5 632 25 476 107 841 388 1047 807 120 245 161 435 152 715 -3 106 -12 205 -22 250 -103 466 -390 841 -800 1045 -251 125 -456 165 -847 165 l-178 0 0 -113z"/>
 <path d="M6516 8451 c-3 -5 -131 -105 -283 -222 -735 -565 -1365 -1059 -1391 -1091 -16 -20 -29 -8 1523 -1403 660 -593 1244 -1122 1298 -1175 88 -88 97 -101 97 -134 0 -77 -28 -90 -126 -61 -59 17 -56 15 -1885 1178 -1770 1124 -1823 1157 -1841 1157 -35 0 -1489 -495 -1562 -532 -92 -47 -165 -128 -187 -211 -9 -34 -7 -46 16 -93 50 -103 120 -140 605 -329 146 -57 560 -218 920 -360 360 -141 936 -367 1280 -502 344 -135 834 -327 1090 -428 1299 -511 2327 -911 2430 -946 97 -32 128 -39 198 -39 94 0 123 11 171 65 28 32 31 42 31 99 0 85 4 66 -370 1946 -180 910 -336 1703 -346 1761 l-18 107 -56 12 c-120 26 -363 115 -505 184 -419 205 -759 515 -1006 916 -63 104 -74 117 -83 101z"/>
 </g>

</svg>